<?xml version="1.0" encoding="UTF-8"?><svg id="_レイヤー_2" xmlns="http://www.w3.org/2000/svg" viewBox="0 0 75.16 75.31"><defs><style>.cls-1{fill:#3b8dcc;stroke-width:0px;}</style></defs><g id="_レイヤー_1-2"><path class="cls-1" d="M46.43,27.2c-.46-.38-1.85.04-2.24.67-.45.72-.07,1.21.54,1.56,1.75,1,3.61,1.58,5.94,1.45-1.56-1.35-2.89-2.53-4.24-3.68ZM11.84,13.17c-1.46-.03-2.69,1.23-2.7,2.75,0,1.46,1.14,2.72,2.55,2.78,1.46.06,2.71-1.17,2.75-2.69.04-1.53-1.14-2.81-2.6-2.84ZM49.02,52.96c-.14-.62.35-1.64-.94-1.64-.39,0-.46-.37-.5-.7-.24-2.17-.48-4.35-.72-6.53-.05-.5,0-.85.64-1.06.81-.27.18-1.03.27-1.56.05-.34-.2-.45-.54-.41-1.58.19-3.16.37-4.75.55-.34.04-.69.09-.51.55.19.47-.22,1.33.48,1.38.88.07.94.54,1.01,1.15.22,2.06.43,4.12.67,6.17.05.47.08.91-.5,1.03-1.13.26-.31,1.02-.38,1.52-.09.68.48.43.79.45,1.51-.16,2.97-.33,4.44-.48.28-.03.64-.04.55-.43ZM20.09.71c-2.43-.01-4.44,2.01-4.47,4.51-.03,2.54,2,4.63,4.48,4.62,2.43-.02,4.4-2.06,4.4-4.56s-1.98-4.54-4.41-4.56ZM24.08,64.17c.07-.77.95-1.57.04-2.35-.05-.04-.15-.03-.23-.05-2.77-.6-5.53-1.19-8.3-1.79-.19-.04-.38-.13-.56.02-.37.3-.36,1.77.07,1.94.57.23.54.61.44,1.06-.46,2.1-.93,4.2-1.38,6.3-.11.53-.29.83-.94.82-.93,0-.53.88-.73,1.35-.21.49.21.56.59.64,1.37.28,2.72.63,4.09.87.39.07,1.09.64,1.2-.29.06-.56.85-1.44-.5-1.62-.35-.05-.48-.39-.4-.74.04-2.14.38-2.42,2.37-1.97.35.08.71.12,1.05.22.31.09.38-.04.5-.3.7-1.6.5-2.04-1.15-2.39-.15-.04-.31-.09-.47-.09-1.12-.03-1.44-.59-1-1.57.15-.33-.11-1.09.6-.91.69.18,1.95,0,1.96.74.03,1.62,1.22,1.17,1.96,1.35,1.02.24.72-.82.76-1.22ZM28.86,51.84c-.54-.34-.62-.78-.69-1.29-.4-2.92-.79-5.84-1.2-8.75-.06-.47.04-1.07-.72-1.17-.83-.11-1.64-.3-2.71-.5-.37-.1-.5.41-.7.77-1.41,2.45-2.79,4.91-4.23,7.34-.35.6-.52,1.35-1.54,1.43-.62.05-.37,1.02-.53,1.57-.13.45.42.38.68.43.97.21,1.95.42,2.94.53.39.04,1.03.64,1.2-.11.12-.54.78-1.26-.13-1.78-.33-.19-.23-.46-.1-.72.15-.31.31-.52.72-.43.78.18,1.56.33,2.35.44.51.08.49.45.51.8.02.37-.12.53-.55.59-.91.13-.53.98-.68,1.5-.17.58.42.43.72.49,1.29.26,2.58.51,3.87.72.28.04.74.5.85-.14.09-.57.69-1.25-.04-1.71ZM24.05,47.25c-.38-.1-.77-.17-1.16-.22-.48-.07-.59-.24-.32-.69.5-.8.94-1.63,1.47-2.54.43,1.05.33,2.05.54,3,.09.42-.1.57-.53.45ZM74.57,42.3c-.86-1.67-.98-1.66-2.62-.66-.35.21-.52.34-.33.81.61,1.48-.93,1.26-1.52,1.74-.71.57-.8-.27-1.01-.66-.78-1.43-.77-1.43.66-2.16.32-.16.63-.35.95-.49.64-.27.87-.56.44-1.29-.78-1.37-.72-1.41-2.11-.7-.39.2-.77.43-1.16.62-.29.13-.65.55-.88,0-.26-.59-.96-1.1-.68-1.8.27-.7,1.9-.86,2.45-.31.22.22.36.19.6.1,1.78-.61,1.88-.85,1.03-2.48-.2-.39-.41-.78-.57-1.18-.19-.46-.42-.55-.89-.3-2.46,1.31-4.93,2.58-7.4,3.87-.34.18-.83.32-.4.85.31.38.19,1.22.86,1.15.82-.37,1.07.04,1.3.49.99,1.9,1.97,3.81,2.96,5.71.22.42.39.74-.13,1.12-.84.61.07,1.09.24,1.59.22.64.66.19.96.04,2.09-1.07,4.16-2.16,6.24-3.24,1.82-.95,1.95-.95.99-2.83ZM28.04,62.48c-2.8,1.09-3.73,3.38-3.91,6.14-.23,3.45,1.68,5.98,4.95,6.52,3.68.61,6.4-1.04,7.32-4.48.22-.81.36-1.64.32-2.36.01-4.77-4.2-7.55-8.67-5.82ZM32.58,71.26c-.43,1.07-1.2,1.63-2.4,1.56-1.23-.07-1.99-.7-2.33-1.86-.43-1.51-.24-3,.24-4.45.46-1.41,1.51-2.12,2.75-1.97,1.34.17,2.09.98,2.25,2.5.04.39,0,.79,0,1.19.04,1.04-.13,2.06-.52,3.03ZM41.47,52.09c-.41-.04-.62-.48-.8-.84-.34-.67-.63-1.38-1.01-2.02-.33-.57-.25-.91.18-1.44,1.86-2.28.59-5.59-2.3-6-1.09-.15-2.23-.03-3.34-.03v-.16c-.8,0-1.59,0-2.39,0-1.35-.02-1.49.14-1.33,1.47.04.33.11.52.47.52.64-.01.66.44.66.9-.03,2.19-.07,4.38-.11,6.57,0,.47-.08.85-.69.91-1.03.1-.39.92-.53,1.4-.18.61.33.57.73.58,1.31.04,2.63.1,3.94.11.31,0,.82.24.86-.32.03-.53.3-1.45-.12-1.56-1.52-.37-.62-1.46-.8-2.2-.07-.27-.22-.77.35-.83.48-.04.94-.04,1.12.59.18.6.47,1.18.71,1.77,1.05,2.61,1.05,2.63,3.92,2.63.41,0,1.16.42,1.2-.46.03-.6.45-1.47-.73-1.59ZM35.7,46.94c-1.39.03-.51-1.02-.81-1.52.3-.52-.47-1.6.91-1.49,1.14.09,1.71.58,1.68,1.56-.03.97-.63,1.43-1.78,1.45ZM50.05,74.06c-.11-.53.35-1.33-.68-1.49-.55-.08-2.67-2.99-2.6-3.5.03-.18.2-.33.32-.49.97-1.33.98-2.75.32-4.17-.67-1.44-1.97-1.92-3.46-1.86-1.79.07-3.58.31-5.37.29-1.23-.01-1.22.58-1.12,1.46.05.44.19.64.66.62.46-.03.62.32.64.7.14,2.31.26,4.61.38,6.92.02.29-.02.62-.35.67-1.33.18-.65,1.18-.6,1.74.07.66.77.2,1.18.26.47.06.95.02,1.43.02,0-.01,0-.03,0-.04.71-.06,1.43-.11,2.14-.19.27-.03.74.17.72-.35-.02-.53.19-1.48-.21-1.52-1.5-.19-.86-1.28-.99-2.01-.05-.3-.35-.83.31-.96.56-.11,1,0,1.22.62.17.48.44.93.67,1.39q1.39,2.78,4.52,2.5c.38-.04,1.01.13.87-.61ZM42.94,67.85q-.69.03-.77-1.61c.22-.39-.65-1.34.66-1.36,1.14-.02,1.74.4,1.81,1.38.07,1.08-.42,1.54-1.69,1.59ZM61.12,63.73c-1.07-1.97-2.76-3.06-4.99-2.8-2.28.26-4.53.84-6.79,1.26-.48.09-.56.29-.44.72.16.59-.04,1.45,1.06,1.28.36-.05.45.27.5.55.45,2.26.91,4.53,1.35,6.79.07.36.09.69-.42.82-1.15.28-.25,1.03-.27,1.54-.03.72.54.45.95.37,1.87-.38,3.75-.71,5.61-1.15,2.86-.68,4.39-2.67,4.38-5.85-.06-1.06-.31-2.34-.95-3.52ZM55.87,71.08c-.48.08-.7.03-.8-.52-.4-2.1-.85-4.2-1.29-6.29-.07-.35.02-.46.36-.57,1.73-.56,3.23.11,3.84,1.82.28.78.5,1.59.5,2.44.03,1.79-.86,2.84-2.61,3.14ZM62.47,49.44c-.79-2.75-1.5-5.52-2.27-8.28-.13-.49-.34-.92.33-1.16,1.01-.36.18-.98.16-1.46-.03-.67-.52-.54-.97-.41-.95.27-1.89.65-2.87.79-1.17.18-1.29.7-.92,1.68.16.42.27.62.73.48.32-.1.59.07.67.35.38,1.31.73,2.63,1.09,3.95-.07.03-.13.06-.2.09-.74-.92-1.49-1.84-2.24-2.75-.79-.95-1.43-2.3-2.43-2.69-1.08-.42-2.4.6-3.66.77-1.19.16-1.26.78-.85,1.71.13.3.17.62.64.46.67-.22.83.29.96.76.57,2.07,1.13,4.14,1.69,6.22.11.43.22.85-.37,1.08-1.07.4-.15,1.05-.12,1.56.04.74.61.39.98.29,1-.26,2-.54,2.98-.85.4-.12,1.19.01,1.03-.62-.13-.53.22-1.73-1.13-1.44-.38.08-.54-.3-.62-.61-.4-1.47-.79-2.94-1.27-4.72,1.46,1.7,2.83,3.07,3.9,4.63,1.11,1.62,2.3,2.14,4.14,1.31.63-.28.85-.4.64-1.12ZM19.2,39.73c-1.3-.6-2.64-1.12-3.89-1.81-1.06-.58-1.73-.46-2.43.56-.79,1.16-1.76,2.19-2.65,3.28.13-1.69.41-3.27.68-4.84.08-.46.18-.9-.46-1.16-1.65-.69-3.27-1.45-4.9-2.19-.41-.19-.74-.23-.88.34-.14.56-.94,1.14.16,1.62.33.14.19.57.06.87-.93,2.07-1.87,4.13-2.8,6.2-.14.31-.32.63-.7.46-1.26-.56-1.02.66-1.29,1.14-.43.75.45.67.76.83,1.06.55,2.17.99,3.25,1.48.32.14.72.42.84-.15.11-.51.97-1.01.24-1.52-.57-.4-.46-.71-.25-1.18.81-1.77,1.61-3.55,2.42-5.32.08-.23.15-.46.23-.69.03-.24.12-.44.34-.59.21.3.17.57-.08.82-.09.41-.1.78-.25,1.24-.32,2.07-.62,4.15-.98,6.21-.13.74.01,1.19.78,1.41.69.19,1.27.9,2.02-.08,1.45-1.88,3.04-3.65,4.57-5.46.11-.3.29-.53.67-.72-.04.42-.11.74-.4.99-.79,1.78-1.57,3.56-2.35,5.35-.19.45-.4.72-.97.61-1.01-.19-.75.8-1.04,1.26-.39.61.32.57.58.7,1.07.52,2.17.99,3.26,1.48,1.13.5,1.46.32,1.74-.89.06-.26.11-.48-.18-.59-.82-.33-.46-.87-.24-1.36.83-1.85,1.69-3.69,2.49-5.55.25-.57.45-.89,1.21-.78.8.11.7-.8.96-1.26.29-.53-.28-.53-.57-.66ZM59.22,31.49c-.11-.54-.26-1.08-.43-1.61-.28-.89-.31-1.75-.11-2.69.76-3.45.23-6.73-1.57-9.77-2.33-3.93-5.78-6.57-9.92-8.26-1.68-.69-2.71-1.61-3.35-3.34-1.06-2.87-3.17-4.81-6.17-5.69-1.36-.4-2.02.19-1.72,1.59.23,1.05.55,2.08.81,3.12.42,1.66-.17,2.67-1.86,3.09-1.98.49-3.86,1.23-5.67,2.18-4.62,2.42-8.19,5.94-10.49,10.62-1.03,2.1-2.53,3.07-4.81,2.98-.32,0-.64,0-.95.04-1.09.19-2.24.19-3.15.97-.91.77-.79,1.67.35,2.05,1.39.48,2.8.9,4.23,1.25,1.49.37,2.49,1.06,3.32,2.29.95,1.42,1.88,2.77,2.87,4.17.55.78.88.54,1.27-.15.88-1.56.58-3.09.13-4.63-.37-1.27-.7-2.54-.53-3.87.41-3.28,3.89-6.53,7.59-7.18,3.69-.65,7,.53,10.55,2.14-1.18.3-2.1.54-3.02.77-.61.15-1.17.38-1.24,1.1-.06.64.37.99.89,1.28,2.84,1.59,5.88,2.2,9.1,1.83.75-.09,1.24.06,1.79.54,2.78,2.45,5.46,4.87,8.28,7.29.79.68,1.7.89,2.65.34.95-.56,1.35-1.43,1.12-2.47Z"/></g></svg>