<?xml version="1.0" encoding="UTF-8"?><svg id="_レイヤー_2" xmlns="http://www.w3.org/2000/svg" viewBox="0 0 505.72 75.31"><defs><style>.cls-1{fill:#fff;stroke-width:0px;}</style></defs><g id="_レイヤー_1-2"><path class="cls-1" d="M128.35,43.4v5.17c0,3.66-.5,7.81-5.46,8.86-2.06.42-6.13.46-8.44.38-1.68-.04-2.35-.29-2.35-1.55l-.13-4.33c0-1.47.59-2.06,2.39-2.06,2.6.08,6.72-.21,8.11-.5,2.6-.59,3.53-2.06,3.53-3.86,0-4.16-3.82-5.12-13.4-5.12-1.43,0-2.73.08-3.95.17v7.98c0,5.59-1.34,8.91-9.07,8.91-5.29,0-6.34-3.28-6.34-7.69v-6.89c0-4.71,4.29-8.44,12.85-9.7v-3.32h-10.59c-1.18,0-1.93-.29-1.93-1.89v-4.37c0-1.43.5-1.89,1.93-1.89h10.59v-2.1c0-.8.25-1.18,1.26-1.18.8,0,1.26.38,1.26,1.18v2.1h11.05c1.22,0,1.89.29,1.89,1.89v4.37c0,1.43-.84,1.89-1.89,1.89h-11.05v3.07c1.3-.13,2.65-.17,4.07-.17,10.29,0,15.67,1.81,15.67,10.67ZM106.09,40.8c-7.14.97-10.71,3.57-10.71,6.13,0,2.1.63,2.98,3.4,2.98,5,0,7.31-1.97,7.31-6.09v-3.02ZM127.26,33.11c-1.26-3.61-2.65-6.47-4.24-9.87-.29-.59-.13-1.18.59-1.47.8-.38,1.3-.34,1.85.55,1.47,2.73,2.9,5.71,4.29,9.87.17.55.08,1.09-.71,1.51-.8.42-1.43.17-1.76-.59Z"/><path class="cls-1" d="M173.54,33.62c.29.5.21,1.09-.29,1.43-.59.38-1.13.25-1.43-.25l-1.26-2.14c-8.53.76-28.1,1.26-34.61,1.34-1.76,0-2.35-.17-2.35-1.93v-3.99c0-1.64.63-2.02,2.65-2.02,1.26.04,2.98.04,4.92.04l5.84-7.81c.38-.38.92-.5,1.43-.04.5.42.63.92.17,1.43l-4.79,6.39c7.18-.08,16.59-.38,22.35-.67l-2.52-4.16c-.25-.5-.21-1.18.29-1.47.5-.29,1.22-.13,1.51.38l8.11,13.48ZM140.02,58.23c-2.77,0-3.4-.67-3.4-3.45v-14.83c0-2.39.76-3.36,3.7-3.36h26.04c2.77,0,3.7.67,3.7,3.74v14.11c0,3.24-.97,3.78-3.95,3.78h-26.09ZM139.77,50.92h26.93c.92,0,1.3-.17,1.3-1.18v-4.79c0-1.05-.13-1.22-1.26-1.22h-26.84c-.92,0-1.22.13-1.22,1.01v5.17c0,.97.08,1.01,1.09,1.01Z"/><path class="cls-1" d="M175.09,50.38v-3.95c0-1.39.13-2.31,1.68-2.73.84-.25,1.76-.5,2.69-.76v-9.87h-2.69c-1.22,0-1.55-.42-1.55-1.93v-4.37c0-1.6.38-1.93,1.55-1.93h2.69v-6.01c0-.67.34-1.01,1.05-1.01s.97.29.97,1.01v6.01h3.28c1.26,0,1.55.84,1.55,1.93v4.37c0,1.18-.5,1.93-1.55,1.93h-3.28v9.28c.5-.13,1.01-.29,1.51-.42,1.51-.5,2.14-.13,2.14,1.72v.55c.21-.08.38-.17.63-.21,1.43-.42,2.86-1.05,4.45-2.27.63-.5.88-.88.92-1.39h-3.78c-1.18,0-1.64-.25-1.64-1.55v-2.02c0-1.01.34-1.55,1.64-1.55h26.38c1.26,0,1.76.17,1.76,1.51v1.81c0,1.22-.25,1.81-1.55,1.81h-20.67v1.05h18.02c2.14,0,3.4.34,3.4,3.15v10.21c0,2.1-.42,3.66-2.48,3.87-.97.08-2.48,0-3.07,0-1.51.04-2.14-.42-2.14-1.6v-2.56c0-1.47.34-2.06,2.02-2.06.8,0,1.93,0,2.6-.08.92-.08,1.13-.38,1.13-1.51v-2.86c0-.76-.04-.92-1.05-.92h-4.33v3.61c0,1.81-.5,3.4-1.72,4.37-2.23,1.81-4.71,2.69-7.77,3.28-1.81.34-2.14.08-2.14-1.39v-2.02c-2.81,1.76-5.92,2.9-9.03,3.32-1.34.17-1.51-.55-1.51-1.39v-3.32c0-1.34.42-1.64,1.6-1.93,2.94-.71,6.85-2.18,9.24-4.24l.29-.29h-3.4c-1.97,1.89-4.37,2.9-7.14,3.7-1.18.34-1.76-.04-1.85-.84-.13.08-.34.17-.5.29-1.72.92-3.95,1.64-6.22,2.1-1.43.29-2.14-.04-2.14-1.89ZM213.65,21.52v9.58c0,2.23-.76,3.11-2.81,3.11h-20.08c-2.1,0-2.81-.71-2.81-2.65v-10.12c0-2.06,1.05-2.6,3.02-2.6h19.91c1.93,0,2.77.71,2.77,2.69ZM190.09,24.21v.46h21.38v-.42c0-.71-.08-.8-.8-.8h-19.7c-.63,0-.88.08-.88.76ZM211.47,29v-.46h-21.38v.67c0,.59.17.67.71.67h19.91c.67,0,.76-.13.76-.88ZM205.33,47.02h-6.76v3.4c0,.42-.04.84-.13,1.22,2.14-.71,4.33-1.68,5.84-2.86.67-.55,1.01-1.01,1.05-1.76Z"/><path class="cls-1" d="M254.56,27.44v3.82c0,6.59-.59,7.56-4.12,10-2.73,1.93-5.63,3.28-8.7,4.41,1.05.8,2.06,1.55,3.03,2.27,1.93,1.26,1.97,2.31,1.97,4.54v3.4c0,2.6-1.85,2.81-3.61,1.47-5.42-3.86-10.88-7.6-16.51-10.96-1.85-1.18-2.06-1.55-2.06-3.95v-4.12c.04-2.44,1.51-2.73,3.91-1.6,2.98,1.68,5.76,3.49,8.32,5.33v-.13c0-1.6-.34-2.69,2.06-3.49,4.24-1.43,7.39-3.11,10.75-5.5,1.93-1.39,2.31-1.85,2.31-2.98,0-.55-.29-.76-.84-.76h-30.16c-1.76,0-2.27-.38-2.27-1.97v-4.24c0-1.64.42-2.18,2.48-2.18h27.09c4.49,0,6.34.67,6.34,6.64Z"/><path class="cls-1" d="M266.69,41.72c0,.76-.55,1.09-1.13,1.09h-.88c-.55,0-1.05-.38-1.01-1.09v-20.08c0-.84.25-1.55,1.6-1.55,1.13,0,1.39.46,1.39,1.55l.04,20.08ZM286.31,54.62c-4.91,1.6-11.34,2.73-16.89,3.11-2.44.13-3.19-.08-3.19-2.39v-3.95c0-2.02.55-2.73,3.36-3.02,5.75-.67,11.34-1.72,15.58-3.61,5.42-2.39,5.92-4.41,5.92-11.47l-.25-12.48c0-1.18.42-1.47,1.55-1.47s1.3.46,1.34,1.64l.25,20.79c0,7.73-1.72,10.96-7.69,12.85Z"/><path class="cls-1" d="M323.39,26.39v4.66c0,1.72-.67,2.48-2.44,2.1l-13.36-3.32c-1.68-.29-2.23-.84-2.23-2.86v-4.37c0-1.68.84-2.65,2.94-2.1l12.85,2.98c1.81.34,2.23.8,2.23,2.9ZM335.07,41.56c-2.56,9.96-3.32,14.24-11.97,14.79-5.38.34-10.5.46-14.32.29-2.81-.17-3.23-.59-3.23-2.77v-3.86c0-2.48.71-3.19,3.36-3.15,4.58.08,10.29.08,14.58-.21,5.71-.38,7.1-1.85,9.16-9.03,1.18-4.16,2.1-7.73,2.73-10.92.21-1.13.71-1.68,1.89-1.43,1.09.17,1.34.84,1.18,1.85-1.18,5.33-1.89,8.78-3.36,14.45Z"/><path class="cls-1" d="M376.23,31.98c0-1.34-.29-1.76-1.64-1.76h-25.96c-2.23,0-2.48-.46-2.48-2.44v-3.91c0-1.81.38-2.48,2.69-2.48h23.82c4.83,0,6.34,1.89,6.34,7.02v7.18c0,7.18-1.34,10.04-6.09,13.32-5.71,3.99-13.36,6.85-21.51,8.61-2.27.46-3.02.08-3.02-2.35v-3.7c0-1.76.17-2.73,2.86-3.44,8.15-2.27,15.75-5.21,21.76-9.91,2.6-2.02,3.24-4.16,3.24-6.13Z"/><path class="cls-1" d="M420.5,32.65v3.66c0,1.3-.63,1.55-1.76,1.55h-4.08l.08,15.75c0,2.98-.8,4.08-2.94,4.29-1.81.13-3.78.17-5.71.08-1.64-.04-2.18-.46-2.18-1.81v-2.94c0-1.68.25-2.23,2.14-2.14,1.18.04,3.19.13,4.37.04,1.64-.13,1.97-.34,1.97-2.86l-.04-10.42h-7.39v4.24c0,4.66-.8,5.96-2.77,7.9-2.06,2.06-5.8,4.58-8.57,5.92-1.68.76-2.35.42-2.35-1.64v-2.77c0-1.93.29-2.27,2.02-3.32,2.06-1.26,5.54-3.91,7.27-5.63,1.3-1.3,1.97-2.56,2.1-4.71h-9.41c-1.39,0-1.81-.29-1.81-1.55v-3.66c0-1.43.67-1.55,1.97-1.55h18.9v-2.73c0-.92.17-1.13,1.13-1.13.76,0,1.18.17,1.18,1.13v2.73h4.29c1.26,0,1.6.38,1.6,1.55Z"/><path class="cls-1" d="M465.99,35.55v4.12c0,1.97-.46,2.65-2.44,2.65h-32.72c-1.55,0-2.23-.55-2.23-2.18v-4.83c0-1.64.71-2.18,2.48-2.18h32.22c2.1,0,2.69.42,2.69,2.44Z"/><path class="cls-1" d="M505.72,38.36v3.53c0,2.39-.55,3.4-3.07,3.02-9.2-1.09-17.9-3.11-23.61-5.25l-.04,16.63c0,.84-.25,1.34-1.51,1.34s-1.47-.34-1.47-1.34V21.14c0-1.18.29-1.6,1.6-1.6s1.47.42,1.47,1.6l-.04,8.82c5.92,2.1,15.88,4.24,23.82,5.29,2.14.25,2.86.76,2.86,3.11ZM498.91,18.83v6.13c0,.59-.46.8-1.05.8s-1.05-.21-1.05-.8v-6.13c0-.55.46-.8,1.01-.8.59,0,1.09.25,1.09.8ZM502.78,18.83v6.13c0,.59-.46.8-1.01.8-.59,0-1.09-.21-1.09-.8v-6.13c0-.55.46-.8,1.05-.8.55,0,1.05.25,1.05.8Z"/><path class="cls-1" d="M46.43,27.2c-.46-.38-1.85.04-2.24.67-.45.72-.07,1.21.54,1.56,1.75,1,3.61,1.58,5.94,1.45-1.56-1.35-2.89-2.53-4.24-3.68ZM11.84,13.17c-1.46-.03-2.69,1.23-2.7,2.75,0,1.46,1.14,2.72,2.55,2.78,1.46.06,2.71-1.17,2.75-2.69.04-1.53-1.14-2.81-2.6-2.84ZM49.02,52.96c-.14-.62.35-1.64-.94-1.64-.39,0-.46-.37-.5-.7-.24-2.17-.48-4.35-.72-6.53-.05-.5,0-.85.64-1.06.81-.27.18-1.03.27-1.56.05-.34-.2-.45-.54-.41-1.58.19-3.16.37-4.75.55-.34.04-.69.09-.51.55.19.47-.22,1.33.48,1.38.88.07.94.54,1.01,1.15.22,2.06.43,4.12.67,6.17.05.47.08.91-.5,1.03-1.13.26-.31,1.02-.38,1.52-.09.68.48.43.79.45,1.51-.16,2.97-.33,4.44-.48.28-.03.64-.04.55-.43ZM20.09.71c-2.43-.01-4.44,2.01-4.47,4.51-.03,2.54,2,4.63,4.48,4.62,2.43-.02,4.4-2.06,4.4-4.56s-1.98-4.54-4.41-4.56ZM24.08,64.17c.07-.77.95-1.57.04-2.35-.05-.04-.15-.03-.23-.05-2.77-.6-5.53-1.19-8.3-1.79-.19-.04-.38-.13-.56.02-.37.3-.36,1.77.07,1.94.57.23.54.61.44,1.06-.46,2.1-.93,4.2-1.38,6.3-.11.53-.29.83-.94.82-.93,0-.53.88-.73,1.35-.21.49.21.56.59.64,1.37.28,2.72.63,4.09.87.39.07,1.09.64,1.2-.29.06-.56.85-1.44-.5-1.62-.35-.05-.48-.39-.4-.74.04-2.14.38-2.42,2.37-1.97.35.08.71.12,1.05.22.31.09.38-.04.5-.3.7-1.6.5-2.04-1.15-2.39-.15-.04-.31-.09-.47-.09-1.12-.03-1.44-.59-1-1.57.15-.33-.11-1.09.6-.91.69.18,1.95,0,1.96.74.03,1.62,1.22,1.17,1.96,1.35,1.02.24.72-.82.76-1.22ZM28.86,51.84c-.54-.34-.62-.78-.69-1.29-.4-2.92-.79-5.84-1.2-8.75-.06-.47.04-1.07-.72-1.17-.83-.11-1.64-.3-2.71-.5-.37-.1-.5.41-.7.77-1.41,2.45-2.79,4.91-4.23,7.34-.35.6-.52,1.35-1.54,1.43-.62.05-.37,1.02-.53,1.57-.13.45.42.38.68.43.97.21,1.95.42,2.94.53.39.04,1.03.64,1.2-.11.12-.54.78-1.26-.13-1.78-.33-.19-.23-.46-.1-.72.15-.31.31-.52.72-.43.78.18,1.56.33,2.35.44.51.08.49.45.51.8.02.37-.12.53-.55.59-.91.13-.53.98-.68,1.5-.17.58.42.43.72.49,1.29.26,2.58.51,3.87.72.28.04.74.5.85-.14.09-.57.69-1.25-.04-1.71ZM24.05,47.25c-.38-.1-.77-.17-1.16-.22-.48-.07-.59-.24-.32-.69.5-.8.94-1.63,1.47-2.54.43,1.05.33,2.05.54,3,.09.42-.1.57-.53.45ZM74.57,42.3c-.86-1.67-.98-1.66-2.62-.66-.35.21-.52.34-.33.81.61,1.48-.93,1.26-1.52,1.74-.71.57-.8-.27-1.01-.66-.78-1.43-.77-1.43.66-2.16.32-.16.63-.35.95-.49.64-.27.87-.56.44-1.29-.78-1.37-.72-1.41-2.11-.7-.39.2-.77.43-1.16.62-.29.13-.65.55-.88,0-.26-.59-.96-1.1-.68-1.8.27-.7,1.9-.86,2.45-.31.22.22.36.19.6.1,1.78-.61,1.88-.85,1.03-2.48-.2-.39-.41-.78-.57-1.18-.19-.46-.42-.55-.89-.3-2.46,1.31-4.93,2.58-7.4,3.87-.34.18-.83.32-.4.85.31.38.19,1.22.86,1.15.82-.37,1.07.04,1.3.49.99,1.9,1.97,3.81,2.96,5.71.22.42.39.74-.13,1.12-.84.61.07,1.09.24,1.59.22.64.66.19.96.04,2.09-1.07,4.16-2.16,6.24-3.24,1.82-.95,1.95-.95.99-2.83ZM28.04,62.48c-2.8,1.09-3.73,3.38-3.91,6.14-.23,3.45,1.68,5.98,4.95,6.52,3.68.61,6.4-1.04,7.32-4.48.22-.81.36-1.64.32-2.36.01-4.77-4.2-7.55-8.67-5.82ZM32.58,71.26c-.43,1.07-1.2,1.63-2.4,1.56-1.23-.07-1.99-.7-2.33-1.86-.43-1.51-.24-3,.24-4.45.46-1.41,1.51-2.12,2.75-1.97,1.34.17,2.09.98,2.25,2.5.04.39,0,.79,0,1.19.04,1.04-.13,2.06-.52,3.03ZM41.47,52.09c-.41-.04-.62-.48-.8-.84-.34-.67-.63-1.38-1.01-2.02-.33-.57-.25-.91.18-1.44,1.86-2.28.59-5.59-2.3-6-1.09-.15-2.23-.03-3.34-.03v-.16c-.8,0-1.59,0-2.39,0-1.35-.02-1.49.14-1.33,1.47.04.33.11.52.47.52.64-.01.66.44.66.9-.03,2.19-.07,4.38-.11,6.57,0,.47-.08.85-.69.91-1.03.1-.39.92-.53,1.4-.18.61.33.57.73.58,1.31.04,2.63.1,3.94.11.31,0,.82.24.86-.32.03-.53.3-1.45-.12-1.56-1.52-.37-.62-1.46-.8-2.2-.07-.27-.22-.77.35-.83.48-.04.94-.04,1.12.59.18.6.47,1.18.71,1.77,1.05,2.61,1.05,2.63,3.92,2.63.41,0,1.16.42,1.2-.46.03-.6.45-1.47-.73-1.59ZM35.7,46.94c-1.39.03-.51-1.02-.81-1.52.3-.52-.47-1.6.91-1.49,1.14.09,1.71.58,1.68,1.56-.03.97-.63,1.43-1.78,1.45ZM50.05,74.06c-.11-.53.35-1.33-.68-1.49-.55-.08-2.67-2.99-2.6-3.5.03-.18.2-.33.32-.49.97-1.33.98-2.75.32-4.17-.67-1.44-1.97-1.92-3.46-1.86-1.79.07-3.58.31-5.37.29-1.23-.01-1.22.58-1.12,1.46.05.44.19.64.66.62.46-.03.62.32.64.7.14,2.31.26,4.61.38,6.92.02.29-.02.62-.35.67-1.33.18-.65,1.18-.6,1.74.07.66.77.2,1.18.26.47.06.95.02,1.43.02,0-.01,0-.03,0-.04.71-.06,1.43-.11,2.14-.19.27-.03.74.17.72-.35-.02-.53.19-1.48-.21-1.52-1.5-.19-.86-1.28-.99-2.01-.05-.3-.35-.83.31-.96.56-.11,1,0,1.22.62.17.48.44.93.67,1.39q1.39,2.78,4.52,2.5c.38-.04,1.01.13.87-.61ZM42.94,67.85q-.69.03-.77-1.61c.22-.39-.65-1.34.66-1.36,1.14-.02,1.74.4,1.81,1.38.07,1.08-.42,1.54-1.69,1.59ZM61.12,63.73c-1.07-1.97-2.76-3.06-4.99-2.8-2.28.26-4.53.84-6.79,1.26-.48.09-.56.29-.44.72.16.59-.04,1.45,1.06,1.28.36-.05.45.27.5.55.45,2.26.91,4.53,1.35,6.79.07.36.09.69-.42.82-1.15.28-.25,1.03-.27,1.54-.03.72.54.45.95.37,1.87-.38,3.75-.71,5.61-1.15,2.86-.68,4.39-2.67,4.38-5.85-.06-1.06-.31-2.34-.95-3.52ZM55.87,71.08c-.48.08-.7.03-.8-.52-.4-2.1-.85-4.2-1.29-6.29-.07-.35.02-.46.36-.57,1.73-.56,3.23.11,3.84,1.82.28.78.5,1.59.5,2.44.03,1.79-.86,2.84-2.61,3.14ZM62.47,49.44c-.79-2.75-1.5-5.52-2.27-8.28-.13-.49-.34-.92.33-1.16,1.01-.36.18-.98.16-1.46-.03-.67-.52-.54-.97-.41-.95.27-1.89.65-2.87.79-1.17.18-1.29.7-.92,1.68.16.42.27.62.73.48.32-.1.59.07.67.35.38,1.31.73,2.63,1.09,3.95-.07.03-.13.06-.2.09-.74-.92-1.49-1.84-2.24-2.75-.79-.95-1.43-2.3-2.43-2.69-1.08-.42-2.4.6-3.66.77-1.19.16-1.26.78-.85,1.71.13.3.17.62.64.46.67-.22.83.29.96.76.57,2.07,1.13,4.14,1.69,6.22.11.43.22.85-.37,1.08-1.07.4-.15,1.05-.12,1.56.04.74.61.39.98.29,1-.26,2-.54,2.98-.85.4-.12,1.19.01,1.03-.62-.13-.53.22-1.73-1.13-1.44-.38.08-.54-.3-.62-.61-.4-1.47-.79-2.94-1.27-4.72,1.46,1.7,2.83,3.07,3.9,4.63,1.11,1.62,2.3,2.14,4.14,1.31.63-.28.85-.4.64-1.12ZM19.2,39.73c-1.3-.6-2.64-1.12-3.89-1.81-1.06-.58-1.73-.46-2.43.56-.79,1.16-1.76,2.19-2.65,3.28.13-1.69.41-3.27.68-4.84.08-.46.18-.9-.46-1.16-1.65-.69-3.27-1.45-4.9-2.19-.41-.19-.74-.23-.88.34-.14.56-.94,1.14.16,1.62.33.14.19.57.06.87-.93,2.07-1.87,4.13-2.8,6.2-.14.31-.32.63-.7.46-1.26-.56-1.02.66-1.29,1.14-.43.75.45.67.76.83,1.06.55,2.17.99,3.25,1.48.32.14.72.42.84-.15.11-.51.97-1.01.24-1.52-.57-.4-.46-.71-.25-1.18.81-1.77,1.61-3.55,2.42-5.32.08-.23.15-.46.23-.69.03-.24.12-.44.34-.59.21.3.17.57-.08.82-.09.41-.1.78-.25,1.24-.32,2.07-.62,4.15-.98,6.21-.13.74.01,1.19.78,1.41.69.19,1.27.9,2.02-.08,1.45-1.88,3.04-3.65,4.57-5.46.11-.3.29-.53.67-.72-.04.42-.11.74-.4.99-.79,1.78-1.57,3.56-2.35,5.35-.19.45-.4.72-.97.61-1.01-.19-.75.8-1.04,1.26-.39.61.32.57.58.7,1.07.52,2.17.99,3.26,1.48,1.13.5,1.46.32,1.74-.89.06-.26.11-.48-.18-.59-.82-.33-.46-.87-.24-1.36.83-1.85,1.69-3.69,2.49-5.55.25-.57.45-.89,1.21-.78.8.11.7-.8.96-1.26.29-.53-.28-.53-.57-.66ZM59.22,31.49c-.11-.54-.26-1.08-.43-1.61-.28-.89-.31-1.75-.11-2.69.76-3.45.23-6.73-1.57-9.77-2.33-3.93-5.78-6.57-9.92-8.26-1.68-.69-2.71-1.61-3.35-3.34-1.06-2.87-3.17-4.81-6.17-5.69-1.36-.4-2.02.19-1.72,1.59.23,1.05.55,2.08.81,3.12.42,1.66-.17,2.67-1.86,3.09-1.98.49-3.86,1.23-5.67,2.18-4.62,2.42-8.19,5.94-10.49,10.62-1.03,2.1-2.53,3.07-4.81,2.98-.32,0-.64,0-.95.04-1.09.19-2.24.19-3.15.97-.91.77-.79,1.67.35,2.05,1.39.48,2.8.9,4.23,1.25,1.49.37,2.49,1.06,3.32,2.29.95,1.42,1.88,2.77,2.87,4.17.55.78.88.54,1.27-.15.88-1.56.58-3.09.13-4.63-.37-1.27-.7-2.54-.53-3.87.41-3.28,3.89-6.53,7.59-7.18,3.69-.65,7,.53,10.55,2.14-1.18.3-2.1.54-3.02.77-.61.15-1.17.38-1.24,1.1-.06.64.37.99.89,1.28,2.84,1.59,5.88,2.2,9.1,1.83.75-.09,1.24.06,1.79.54,2.78,2.45,5.46,4.87,8.28,7.29.79.68,1.7.89,2.65.34.95-.56,1.35-1.43,1.12-2.47Z"/></g></svg>